<?xml version="1.0" encoding="UTF-8"?>
<svg id="Capa_2" data-name="Capa 2" xmlns="http://www.w3.org/2000/svg" viewBox="0 0 527.79 71.53">
  <defs>
    <style>
      .cls-1 {
        fill: #3177f3;
      }

      .cls-1, .cls-2 {
        stroke-width: 0px;
      }

      .cls-2 {
        fill: #fff;
      }
    </style>
  </defs>
  <g id="Capa_1-2" data-name="Capa 1">
    <g>
      <g>
        <g>
          <g>
            <path class="cls-2" d="M120.87,39.41V12.59h15.74c5.15,0,7.73,2.11,7.73,6.33v4.39c0,3.26-1.58,5.25-4.74,5.95l5.69,9.13-.71,1.01h-4.93l-6.07-9.79h-6.92v9.79h-5.78ZM126.66,25.3h9.81c1.39,0,2.09-.57,2.09-1.71v-5.01c0-1.11-.7-1.67-2.09-1.67h-9.81v8.39Z"/>
            <path class="cls-2" d="M153.16,33.07v-14.15c0-4.22,2.58-6.33,7.73-6.33h10.86c5.15,0,7.73,2.11,7.73,6.33v14.15c0,4.22-2.58,6.33-7.73,6.33h-10.86c-5.15,0-7.73-2.11-7.73-6.33ZM158.95,33.42c0,1.11.69,1.67,2.09,1.67h10.57c1.39,0,2.09-.56,2.09-1.67v-14.85c0-1.11-.7-1.67-2.09-1.67h-10.57c-1.39,0-2.09.56-2.09,1.67v14.85Z"/>
            <path class="cls-2" d="M189.25,39.41V12.59h15.27c5.15,0,7.73,2.11,7.73,6.33v2.45c0,.88-.32,1.63-.95,2.25l-1.66,1.63,1.99,1.36c1.04.7,1.56,1.74,1.56,3.11v3.34c0,4.22-2.58,6.33-7.73,6.33h-16.22ZM195.03,23.36h9.34c1.39,0,2.09-.57,2.09-1.71v-3.07c0-1.11-.7-1.67-2.09-1.67h-9.34v6.45ZM195.03,35.1h10.29c1.39,0,2.09-.56,2.09-1.67v-4.08c0-1.11-.7-1.67-2.09-1.67h-10.29v7.42Z"/>
            <path class="cls-2" d="M222.2,39.41V12.59h22v4.31h-16.22v6.45h14.79v4.31h-14.79v7.42h16.22v4.31h-22Z"/>
            <path class="cls-2" d="M252.78,39.41V12.59h15.74c5.15,0,7.73,2.11,7.73,6.33v4.39c0,3.26-1.58,5.25-4.74,5.95l5.69,9.13-.71,1.01h-4.93l-6.07-9.79h-6.92v9.79h-5.78ZM258.57,25.3h9.81c1.39,0,2.09-.57,2.09-1.71v-5.01c0-1.11-.7-1.67-2.09-1.67h-9.81v8.39Z"/>
            <path class="cls-2" d="M282.65,16.91v-4.31h26.41v4.31h-10.29v22.5h-5.83v-22.5h-10.29Z"/>
            <path class="cls-2" d="M315.94,33.07v-14.15c0-4.22,2.58-6.33,7.73-6.33h10.86c5.15,0,7.73,2.11,7.73,6.33v14.15c0,4.22-2.58,6.33-7.73,6.33h-10.86c-5.15,0-7.73-2.11-7.73-6.33ZM321.72,33.42c0,1.11.7,1.67,2.09,1.67h10.57c1.39,0,2.09-.56,2.09-1.67v-14.85c0-1.11-.7-1.67-2.09-1.67h-10.57c-1.39,0-2.09.56-2.09,1.67v14.85Z"/>
          </g>
          <g>
            <path class="cls-1" d="M365.58,39.41V12.59h12.57c8.53,0,12.8,3.51,12.8,10.53v5.75c0,7.02-4.27,10.53-12.8,10.53h-12.57ZM371.37,35.1h7.11c4.46,0,6.69-1.83,6.69-5.48v-7.23c0-3.65-2.23-5.48-6.69-5.48h-7.11v18.19Z"/>
            <path class="cls-1" d="M399.96,33.07V12.59h5.78v20.83c0,1.11.7,1.67,2.09,1.67h9.63c1.39,0,2.09-.56,2.09-1.67V12.59h5.78v20.48c0,4.22-2.58,6.33-7.73,6.33h-9.91c-5.15,0-7.73-2.11-7.73-6.33Z"/>
            <path class="cls-1" d="M435.28,39.41V12.59h15.74c5.15,0,7.73,2.11,7.73,6.33v4.39c0,3.26-1.58,5.25-4.74,5.95l5.69,9.13-.71,1.01h-4.93l-6.07-9.79h-6.92v9.79h-5.78ZM441.07,25.3h9.81c1.39,0,2.09-.57,2.09-1.71v-5.01c0-1.11-.7-1.67-2.09-1.67h-9.81v8.39Z"/>
            <path class="cls-1" d="M464.92,38.48l10.1-25.88h9.01l10.05,25.88-.71.93h-4.88l-2.23-5.91h-13.51l-2.28,5.91h-4.79l-.76-.93ZM474.35,29.19h10.34l-4.74-12.28h-.9l-4.69,12.28ZM475.87,8.94l6.4-5.95,3.13,2.45-6.83,5.6-2.7-2.1Z"/>
            <path class="cls-1" d="M501.19,39.41V12.59h6.31l14.51,19.12V12.59h5.78v26.82h-6.26l-14.56-19.12v19.12h-5.78Z"/>
          </g>
          <path class="cls-1" d="M279.83,65.41v-1.84c0-.69.27-1.22.8-1.59l1.02-.69-.85-.83c-.32-.32-.48-.7-.48-1.15v-1.31c0-2.09,1.27-3.13,3.82-3.13h4.45l1.28.77v1.25h-5.61c-.74,0-1.11.3-1.11.91v1.65c0,.61.37.91,1.11.91h9.24v2.02h-2.42v6.17h-7.43c-2.55,0-3.82-1.04-3.82-3.13ZM282.66,65.61c0,.61.37.91,1.11.91h4.47v-4.14h-4.47c-.74,0-1.11.3-1.11.91v2.32Z"/>
          <g>
            <path class="cls-2" d="M237.33,68.54v-13.68h2.95v13.68h-2.95Z"/>
            <path class="cls-2" d="M244.92,68.06l5.15-13.2h4.6l5.13,13.2-.36.48h-2.49l-1.14-3.01h-6.89l-1.16,3.01h-2.44l-.39-.48ZM249.74,63.33h5.27l-2.42-6.26h-.46l-2.39,6.26Z"/>
            <path class="cls-2" d="M314.51,68.54v-13.68h6.41c4.35,0,6.53,1.79,6.53,5.37v2.93c0,3.58-2.18,5.37-6.53,5.37h-6.41ZM317.46,66.34h3.63c2.27,0,3.41-.93,3.41-2.8v-3.69c0-1.86-1.14-2.8-3.41-2.8h-3.63v9.28Z"/>
            <path class="cls-2" d="M333.21,68.54v-13.68h2.95v13.68h-2.95Z"/>
            <path class="cls-2" d="M341.67,67.63v-1.29h7.47c.71,0,1.06-.28,1.06-.85v-1.51c0-.5-.27-.8-.82-.89l-4.91-.81c-1.87-.3-2.81-1.34-2.81-3.09v-1.09c0-2.15,1.31-3.23,3.94-3.23h5.64l1.43.91v1.29h-6.99c-.71,0-1.06.28-1.06.85v1.33c0,.5.27.8.82.89l4.91.79c1.87.32,2.81,1.35,2.81,3.09v1.29c0,2.15-1.31,3.23-3.94,3.23h-6.12l-1.43-.91Z"/>
            <path class="cls-2" d="M358.67,68.54v-13.68h11.22v2.2h-8.27v3.29h7.55v2.2h-7.55v3.79h8.27v2.2h-11.22Z"/>
            <path class="cls-2" d="M375.29,68.54v-13.68h3.22l7.4,9.75v-9.75h2.95v13.68h-3.19l-7.43-9.75v9.75h-2.95ZM378.12,52.64l1.48-1.21c.37-.29.82-.44,1.35-.44s.98.15,1.33.44l.92.75c.11.08.21.12.29.12s.18-.04.29-.12l1.28-1.05,1.23,1.03-1.48,1.21c-.36.29-.8.44-1.33.44s-.98-.15-1.35-.44l-.89-.75c-.1-.09-.19-.14-.28-.14s-.19.05-.3.14l-1.28,1.05-1.26-1.03Z"/>
            <path class="cls-2" d="M394.86,65.31v-7.22c0-2.15,1.31-3.23,3.94-3.23h5.54c2.63,0,3.94,1.08,3.94,3.23v7.22c0,2.15-1.31,3.23-3.94,3.23h-5.54c-2.63,0-3.94-1.08-3.94-3.23ZM397.81,65.49c0,.57.35.85,1.06.85h5.39c.71,0,1.06-.28,1.06-.85v-7.57c0-.57-.35-.85-1.06-.85h-5.39c-.71,0-1.06.28-1.06.85v7.57Z"/>
          </g>
        </g>
        <path class="cls-1" d="M527.79,60.29h-91.92c-.47-1.66-1.99-2.88-3.8-2.88-2.18,0-3.95,1.77-3.95,3.95s1.77,3.95,3.95,3.95c1.81,0,3.33-1.22,3.8-2.88h91.92v-2.13ZM432.07,63.23c-1.03,0-1.87-.84-1.87-1.87s.84-1.87,1.87-1.87,1.87.84,1.87,1.87-.84,1.87-1.87,1.87Z"/>
        <path class="cls-2" d="M120.64,62.42h91.92c.47,1.66,1.99,2.88,3.8,2.88,2.18,0,3.95-1.77,3.95-3.95s-1.77-3.95-3.95-3.95c-1.81,0-3.33,1.22-3.8,2.88h-91.92v2.13ZM216.36,59.49c1.03,0,1.87.84,1.87,1.87s-.84,1.87-1.87,1.87-1.87-.84-1.87-1.87.84-1.87,1.87-1.87Z"/>
      </g>
      <g>
        <path class="cls-1" d="M107.36,39.29c.26-2.63.23-5.11-.09-7.19-.61-3.95-1.48-7.96-3.21-11.77.44-.59.7-1.31.7-2.1,0-1.94-1.57-3.51-3.51-3.51-.18,0-.36.02-.53.04-1.7-2.19-3.83-4.25-6.55-6.12-2.97-2.04-6.11-3.43-9.07-4.36-.17-1.77-1.67-3.16-3.49-3.16-1.26,0-2.37.67-2.99,1.68-3.59-.53-6.14-.45-6.49-.44h-11c-.49-1.34-1.78-2.31-3.29-2.31-1.94,0-3.51,1.57-3.51,3.51s1.57,3.51,3.51,3.51c.36,0,.71-.06,1.04-.16l9.42,10.46.06.06s2.9,2.73,4.42,6.01l1.49,3.21c-.71.64-1.16,1.57-1.16,2.6,0,1.3.71,2.43,1.76,3.04-2.4,7.13-4.92,12.14-5.72,13.65-.22-.04-.45-.07-.69-.07-1.7,0-3.11,1.21-3.44,2.81h-23.63v2.08h23.85c.24.56.62,1.03,1.1,1.4l-5.6,12.31s-.08,0-.12,0c-1.94,0-3.51,1.57-3.51,3.51s1.57,3.51,3.51,3.51c1.44,0,2.68-.87,3.22-2.12h10.86c4.88,0,9.57-1.24,13.71-3.14.63.6,1.47.96,2.41.96,1.94,0,3.51-1.57,3.51-3.51,0-.27-.03-.53-.09-.79,2.86-1.99,5.24-4.24,6.93-6.43,2.34-3.04,4.03-6.97,5.07-10.99,1.46-.42,2.53-1.77,2.53-3.37,0-1.16-.56-2.18-1.43-2.82ZM82.02,8.11c1.14-.13,2.11-.81,2.65-1.76,2.74.88,5.63,2.16,8.32,4.01,2.39,1.64,4.28,3.47,5.8,5.37-.65.64-1.05,1.52-1.05,2.5,0,.68.2,1.31.53,1.85-1.53,1.49-4.31,3.86-7.72,5.16-4.51,1.73-9.46,2.15-10.89,2.24-.22-.38-.51-.71-.85-.99,2.58-9.62,3.13-17.15,3.2-18.39ZM74.69,22.56c-1.62-3.49-4.48-6.27-4.85-6.62l-9.21-10.23c.29-.37.5-.8.62-1.27h10.97c.05,0,2.45-.09,5.91.41.08,1.35.93,2.49,2.12,3l-.29-.02c0,.08-.44,7.92-3.09,17.91-.07,0-.15-.01-.22-.01-.15,0-.31.01-.45.03l-1.49-3.21ZM76.94,32.74c.94-.08,1.78-.53,2.36-1.21.83.07,7.58.7,11.65,2.57,3.7,1.7,6.09,3.41,7.84,4.66.35.25.68.49.98.7,1.01.7,1.72,1.28,2.15,1.65-.04.15-.08.3-.1.46l-30.11,6.44c-.17-.4-.41-.76-.71-1.06.84-1.57,3.44-6.72,5.94-14.2ZM87.42,64.41c-3.84,1.74-8.18,2.87-12.7,2.87h-10.65c-.17-.86-.66-1.6-1.34-2.11l5.59-12.29c.05,0,.11,0,.16,0,.97,0,1.85-.4,2.49-1.03,1.24.54,6.16,2.72,9.52,4.53,3.1,1.67,6.25,4.64,7.27,5.63-.27.5-.42,1.06-.42,1.67,0,.25.03.5.08.73ZM99.54,55.19c-1.55,2.01-3.71,4.07-6.32,5.91-.62-.57-1.45-.93-2.37-.93-.57,0-1.11.14-1.59.39-1.06-1.04-4.37-4.18-7.77-6.01-3.27-1.76-7.83-3.79-9.42-4.49l30.06-6.43c.4.82,1.11,1.47,1.98,1.78-.98,3.61-2.51,7.11-4.57,9.79ZM105.33,38.6s-.03,0-.04,0c-.83,0-1.59.29-2.19.77-.49-.41-1.2-.97-2.14-1.63-.3-.21-.62-.43-.96-.68-1.81-1.3-4.3-3.08-8.18-4.86-3.72-1.71-9.26-2.43-11.48-2.67,1.99-.15,6.6-.67,10.96-2.34,3.88-1.48,6.94-4.12,8.57-5.74.43.18.89.29,1.39.29.38,0,.74-.06,1.08-.17,1.84,4.13,2.45,8.1,2.88,10.85.27,1.78.31,3.9.11,6.18Z"/>
        <path class="cls-2" d="M57.12,67.96c0,.44.08.86.23,1.24h-13.12l-15.02-20.33h-8.05v16.61c1.13.48,1.93,1.6,1.93,2.9,0,1.74-1.41,3.15-3.15,3.15s-3.15-1.41-3.15-3.15c0-1.31.8-2.43,1.93-2.9v-19.04h11.71l15.02,20.33h4.67l-10.03-14.62c-.1,0-.2.02-.31.02-1.74,0-3.15-1.41-3.15-3.15s1.41-3.15,3.15-3.15c.55,0,1.07.14,1.52.39h4.55l11.56-11.93v-16.12l-14.86-13.92H6.07c-.46,1.17-1.6,1.99-2.92,1.99-1.74,0-3.15-1.41-3.15-3.15S1.41,0,3.15,0c1.28,0,2.39.77,2.88,1.87h37.5l16.33,15.29v18.16l-12.97,13.38h-3.97c.01.11.02.22.02.33,0,.75-.26,1.43-.69,1.97l10.83,15.78h4.25c-.13.37-.21.77-.21,1.18ZM13.84,54.62v-12.3h29.86l9.58-9.85v-12.28l-12.49-11.9H3.7v10.38c-1.13.48-1.93,1.6-1.93,2.9,0,1.74,1.41,3.15,3.15,3.15s3.15-1.41,3.15-3.15c0-1.31-.8-2.43-1.93-2.9v-7.95h33.7l11.03,10.51v10.25l-8.18,8.4H11.41v14.72c-1.14.47-1.95,1.6-1.95,2.91,0,1.74,1.41,3.15,3.15,3.15s3.15-1.41,3.15-3.15c0-1.3-.79-2.42-1.92-2.9ZM6.74,65.42v-29.9h33.96l5.6-5.74v-6.83l-7.9-7.49h-21.91c-.49-1.1-1.59-1.87-2.88-1.87-1.74,0-3.15,1.41-3.15,3.15s1.41,3.15,3.15,3.15c1.33,0,2.46-.83,2.92-1.99h20.89l6.43,6.1v4.8l-4.2,4.3H4.31v32.33c-1.13.48-1.93,1.6-1.93,2.9,0,1.74,1.41,3.15,3.15,3.15s3.15-1.41,3.15-3.15c0-1.31-.8-2.43-1.93-2.9Z"/>
      </g>
    </g>
  </g>
</svg>